<svg fill="none" xmlns="http://www.w3.org/2000/svg" viewBox="0 0 24 24"><path d="M23.314 2.027H19.23a.312.312 0 0 0-.308.31c0 .054.016.102.04.145V4.85a.667.667 0 0 1-.405.61.65.65 0 0 1-.252.05h-1.27a.605.605 0 0 1-.563-.378.617.617 0 0 1-.047-.235V2.52a.305.305 0 0 0 .066-.182.312.312 0 0 0-.309-.31H7.946a.307.307 0 0 0-.308.31.31.31 0 0 0 .032.133v2.396a.65.65 0 0 1-.395.596.636.636 0 0 1-.245.05H5.902a.644.644 0 0 1-.457-.191.654.654 0 0 1-.19-.46V2.488a.303.303 0 0 0-.146-.438.306.306 0 0 0-.118-.024H.686a.684.684 0 0 0-.485.203.695.695 0 0 0-.201.488v20.59A.69.69 0 0 0 .686 24h22.628a.684.684 0 0 0 .485-.203c.129-.13.201-.306.201-.49V2.719a.695.695 0 0 0-.201-.488.684.684 0 0 0-.485-.203Zm0 21.351H.686a.068.068 0 0 1-.049-.02.07.07 0 0 1-.02-.05V7.78h22.766v15.527a.07.07 0 0 1-.069.071Z" fill="#000"/><path d="M6.546 4.803a.31.31 0 0 0 .309-.31V.31a.313.313 0 0 0-.19-.287.306.306 0 0 0-.404.168.313.313 0 0 0-.023.119v4.182c0 .172.138.31.308.31Zm11.174 0a.31.31 0 0 0 .309-.31V.31a.313.313 0 0 0-.19-.287.307.307 0 0 0-.427.287v4.182c0 .172.137.31.308.31ZM4.952 12.484c.939 0 1.7-.767 1.7-1.714 0-.946-.761-1.713-1.7-1.713-.94 0-1.7.767-1.7 1.713 0 .947.76 1.714 1.7 1.714ZM9.838 12.484c.94 0 1.7-.767 1.7-1.714 0-.946-.76-1.713-1.7-1.713-.939 0-1.7.767-1.7 1.713 0 .947.761 1.714 1.7 1.714ZM14.723 12.484c.94 0 1.7-.767 1.7-1.714 0-.946-.76-1.713-1.7-1.713-.939 0-1.7.767-1.7 1.713 0 .947.761 1.714 1.7 1.714ZM4.952 17.256c.939 0 1.7-.767 1.7-1.714 0-.946-.761-1.713-1.7-1.713-.94 0-1.7.767-1.7 1.713 0 .947.76 1.714 1.7 1.714ZM9.838 17.256c.94 0 1.7-.767 1.7-1.714 0-.946-.76-1.713-1.7-1.713-.939 0-1.7.767-1.7 1.713 0 .947.761 1.714 1.7 1.714ZM14.723 17.256c.94 0 1.7-.767 1.7-1.714 0-.946-.76-1.713-1.7-1.713-.939 0-1.7.767-1.7 1.713 0 .947.761 1.714 1.7 1.714ZM4.952 22.028c.939 0 1.7-.767 1.7-1.714 0-.946-.761-1.713-1.7-1.713-.94 0-1.7.767-1.7 1.713 0 .947.76 1.714 1.7 1.714ZM9.838 22.028c.94 0 1.7-.767 1.7-1.714 0-.946-.76-1.713-1.7-1.713-.939 0-1.7.767-1.7 1.713 0 .947.761 1.714 1.7 1.714ZM14.723 22.028c.94 0 1.7-.767 1.7-1.714 0-.946-.76-1.713-1.7-1.713-.939 0-1.7.767-1.7 1.713 0 .947.761 1.714 1.7 1.714ZM19.495 12.484c.939 0 1.7-.767 1.7-1.714 0-.946-.761-1.713-1.7-1.713s-1.7.767-1.7 1.713c0 .947.761 1.714 1.7 1.714ZM19.495 17.256c.939 0 1.7-.767 1.7-1.714 0-.946-.761-1.713-1.7-1.713s-1.7.767-1.7 1.713c0 .947.761 1.714 1.7 1.714ZM19.495 22.028c.939 0 1.7-.767 1.7-1.714 0-.946-.761-1.713-1.7-1.713s-1.7.767-1.7 1.713c0 .947.761 1.714 1.7 1.714Z" fill="#000"/></svg>