<svg fill="none" xmlns="http://www.w3.org/2000/svg" viewBox="0 0 26 26"><path d="M23.95 15.17a10.955 10.955 0 0 0-3.303-6.831A10.983 10.983 0 0 0 5.472 8.21 10.961 10.961 0 0 0 2 16.23c0 1.21.196 2.398.581 3.535.204.6.772 1.003 1.415 1.003h18.007c.643 0 1.212-.403 1.416-1.004.5-1.474.679-3.02.53-4.595Zm-1.206 4.366a.776.776 0 0 1-.74.52H3.995a.776.776 0 0 1-.74-.52 10.262 10.262 0 0 1-.543-3.305 10.253 10.253 0 0 1 3.247-7.5 10.19 10.19 0 0 1 7.033-2.787c.223 0 .448.007.674.021 4.99.315 9.106 4.3 9.573 9.272a10.294 10.294 0 0 1-.496 4.3Z" fill="#000"/><path d="M17.352 11.381 12.79 14.7a.356.356 0 0 0-.064.06c-.695.13-1.223.74-1.223 1.472 0 .825.671 1.497 1.497 1.497.731 0 1.341-.528 1.47-1.222a.352.352 0 0 0 .062-.065l3.317-4.562a.357.357 0 0 0-.497-.498ZM13 17.015a.785.785 0 0 1 0-1.568.785.785 0 0 1 0 1.568Zm1.318-1.492a1.507 1.507 0 0 0-.61-.61l2.238-1.628-1.628 2.238Z" fill="#000"/><path d="m21.758 12.604-.004-.008a9.51 9.51 0 0 0-2.014-3.023.353.353 0 0 0-.082-.082 9.51 9.51 0 0 0-3.023-2.014l-.008-.003-.01-.004A9.426 9.426 0 0 0 13 6.752c-1.28 0-2.502.256-3.618.718l-.01.004c-.003 0-.005.002-.008.003a9.51 9.51 0 0 0-3.022 2.014.355.355 0 0 0-.082.082 9.51 9.51 0 0 0-2.014 3.023l-.004.008-.003.01a9.484 9.484 0 0 0-.307 6.383.356.356 0 0 0 .34.252h17.455a.356.356 0 0 0 .341-.253 9.487 9.487 0 0 0-.307-6.383l-.003-.01Zm-.299 5.932H4.54a8.763 8.763 0 0 1-.299-1.948h.776a.356.356 0 0 0 0-.713h-.776c.038-.934.221-1.83.53-2.667l.717.298a.355.355 0 0 0 .466-.193.356.356 0 0 0-.193-.466l-.716-.297a8.798 8.798 0 0 1 1.512-2.257l.546.546a.355.355 0 0 0 .609-.252.356.356 0 0 0-.105-.252l-.546-.546A8.797 8.797 0 0 1 9.32 8.276l.297.717a.356.356 0 1 0 .658-.273l-.297-.718a8.713 8.713 0 0 1 2.666-.53v.777a.356.356 0 1 0 .713 0v-.776c.934.037 1.83.22 2.667.53l-.298.717a.357.357 0 0 0 .659.273l.297-.717a8.8 8.8 0 0 1 2.258 1.513l-.547.546a.357.357 0 0 0 .505.504l.546-.546a8.797 8.797 0 0 1 1.512 2.257l-.716.297a.357.357 0 0 0 .272.659l.718-.298c.309.837.492 1.733.53 2.667h-.777a.356.356 0 1 0 0 .713h.776a8.77 8.77 0 0 1-.299 1.948Z" fill="#000"/></svg>