<svg xmlns="http://www.w3.org/2000/svg" width="22" height="19" fill="none"><g clip-path="url(#a)"><path fill="#000" d="M8.143 2.57c.236.052.439.182.564.362a.7.7 0 0 1 .103.599L5.143 16.198a.746.746 0 0 1-.15.284.88.88 0 0 1-.265.212 1.058 1.058 0 0 1-.7.093.985.985 0 0 1-.327-.134.845.845 0 0 1-.241-.233.687.687 0 0 1-.095-.607L7.03 3.148a.75.75 0 0 1 .153-.28.884.884 0 0 1 .265-.207 1.058 1.058 0 0 1 .694-.09Zm8 .576 3.667 12.667a.689.689 0 0 1-.096.606.845.845 0 0 1-.24.233.985.985 0 0 1-.327.134 1.059 1.059 0 0 1-.701-.093.88.88 0 0 1-.265-.212.747.747 0 0 1-.15-.284L14.365 3.53a.686.686 0 0 1-.023-.311.724.724 0 0 1 .118-.295.844.844 0 0 1 .241-.233.985.985 0 0 1 .327-.134 1.058 1.058 0 0 1 .7.093.88.88 0 0 1 .265.212.746.746 0 0 1 .15.284ZM11.587 13.63c.225 0 .441.071.61.2a.763.763 0 0 1 .3.5l.007.092v1.583c0 .202-.09.396-.25.543a.983.983 0 0 1-.613.247 1.014 1.014 0 0 1-.642-.184.768.768 0 0 1-.322-.513l-.006-.093v-1.583c0-.21.096-.411.268-.56a.995.995 0 0 1 .648-.232Zm0-5.541c.243 0 .476.083.648.231.172.149.269.35.269.56v1.584c0 .21-.097.41-.269.56a.995.995 0 0 1-.648.231.995.995 0 0 1-.648-.232.741.741 0 0 1-.268-.56V8.88c0-.21.096-.411.268-.56a.995.995 0 0 1 .648-.231Zm0-5.542c.225 0 .441.071.61.2a.763.763 0 0 1 .3.499l.007.093v1.583c0 .202-.09.396-.25.542a.983.983 0 0 1-.613.247 1.014 1.014 0 0 1-.642-.183.768.768 0 0 1-.322-.513l-.006-.093V3.339c0-.21.096-.412.268-.56a.995.995 0 0 1 .648-.232Z"/></g><defs><clipPath id="a"><path fill="#fff" d="M0 0h22v19H0z"/></clipPath></defs></svg>