<svg fill="none" xmlns="http://www.w3.org/2000/svg" viewBox="0 0 33 30"><path d="M12.215 4.059c.354.08.658.285.845.57.188.284.243.625.154.946l-5.5 20a1.2 1.2 0 0 1-.224.449 1.334 1.334 0 0 1-.397.335 1.51 1.51 0 0 1-1.051.146 1.441 1.441 0 0 1-.49-.211c-.147-.1-.27-.224-.362-.367a1.14 1.14 0 0 1-.143-.958l5.5-20c.044-.16.121-.31.229-.441.107-.132.243-.244.398-.328a1.508 1.508 0 0 1 1.041-.14Zm12 .909 5.5 20c.047.16.058.327.034.492a1.176 1.176 0 0 1-.177.465 1.3 1.3 0 0 1-.362.368c-.146.1-.313.171-.49.211a1.509 1.509 0 0 1-1.051-.146c-.156-.087-.291-.2-.398-.335a1.199 1.199 0 0 1-.224-.45l-5.5-20a1.14 1.14 0 0 1 .143-.957 1.3 1.3 0 0 1 .362-.367c.146-.1.312-.171.49-.212a1.51 1.51 0 0 1 1.05.147c.156.086.291.2.398.335a1.2 1.2 0 0 1 .225.449ZM17.38 21.52c.337 0 .662.113.913.316.252.204.413.484.452.788l.01.146v2.5c0 .319-.135.625-.375.857-.241.232-.57.371-.92.39a1.466 1.466 0 0 1-.963-.29 1.223 1.223 0 0 1-.483-.81l-.01-.147v-2.5c0-.331.146-.65.403-.884.258-.234.608-.366.973-.366Zm0-8.75c.364 0 .714.132.972.366.258.235.403.553.403.884v2.5c0 .332-.145.65-.403.884a1.448 1.448 0 0 1-.972.366c-.365 0-.715-.131-.973-.366a1.195 1.195 0 0 1-.402-.884v-2.5c0-.331.145-.65.402-.884.258-.234.608-.366.973-.366Zm0-8.75c.337 0 .662.113.913.316.252.204.413.484.452.788l.01.146v2.5c0 .319-.135.625-.375.857-.241.232-.57.371-.92.39a1.466 1.466 0 0 1-.963-.29 1.222 1.222 0 0 1-.483-.81l-.01-.147v-2.5c0-.331.146-.649.403-.883.258-.235.608-.367.973-.367Z" fill="#000"/></svg>